<svg version="1.1" xmlns="http://www.w3.org/2000/svg" xmlns:xlink="http://www.w3.org/1999/xlink" width="900" height="566"><defs><clipPath id="zZVeZInsmORh"><path fill="none" stroke="none" d=" M 0 0 L 900 0 L 900 566 L 0 566 L 0 0 Z"/></clipPath></defs><g transform="scale(1,1)" clip-path="url(#zZVeZInsmORh)"><g><rect fill="rgb(255,255,255)" stroke="none" x="0" y="0" width="900" height="566" fill-opacity="1"/><path fill="none" stroke="rgb(0,0,0)" paint-order="fill stroke markers" d=" M 0.5 278.5 L 898.5 278.5" stroke-opacity="1" stroke-miterlimit="10"/><path fill="none" stroke="rgb(0,0,0)" paint-order="fill stroke markers" d=" M 899.5 278.5 L 895.5 274.5" stroke-opacity="1" stroke-miterlimit="10"/><path fill="none" stroke="rgb(0,0,0)" paint-order="fill stroke markers" d=" M 899.5 278.5 L 895.5 282.5" stroke-opacity="1" stroke-miterlimit="10"/><path fill="none" stroke="rgb(0,0,0)" paint-order="fill stroke markers" d=" M -39.5 278.5 L -39.5 281.5" stroke-opacity="1" stroke-miterlimit="10"/><path fill="none" stroke="rgb(0,0,0)" paint-order="fill stroke markers" d=" M 50.5 278.5 L 50.5 281.5" stroke-opacity="1" stroke-miterlimit="10"/><path fill="none" stroke="rgb(0,0,0)" paint-order="fill stroke markers" d=" M 140.5 278.5 L 140.5 281.5" stroke-opacity="1" stroke-miterlimit="10"/><path fill="none" stroke="rgb(0,0,0)" paint-order="fill stroke markers" d=" M 230.5 278.5 L 230.5 281.5" stroke-opacity="1" stroke-miterlimit="10"/><path fill="none" stroke="rgb(0,0,0)" paint-order="fill stroke markers" d=" M 321.5 278.5 L 321.5 281.5" stroke-opacity="1" stroke-miterlimit="10"/><path fill="none" stroke="rgb(0,0,0)" paint-order="fill stroke markers" d=" M 411.5 278.5 L 411.5 281.5" stroke-opacity="1" stroke-miterlimit="10"/><path fill="none" stroke="rgb(0,0,0)" paint-order="fill stroke markers" d=" M 501.5 278.5 L 501.5 281.5" stroke-opacity="1" stroke-miterlimit="10"/><path fill="none" stroke="rgb(0,0,0)" paint-order="fill stroke markers" d=" M 591.5 278.5 L 591.5 281.5" stroke-opacity="1" stroke-miterlimit="10"/><path fill="none" stroke="rgb(0,0,0)" paint-order="fill stroke markers" d=" M 682.5 278.5 L 682.5 281.5" stroke-opacity="1" stroke-miterlimit="10"/><path fill="none" stroke="rgb(0,0,0)" paint-order="fill stroke markers" d=" M 772.5 278.5 L 772.5 281.5" stroke-opacity="1" stroke-miterlimit="10"/><path fill="none" stroke="rgb(0,0,0)" paint-order="fill stroke markers" d=" M 862.5 278.5 L 862.5 281.5" stroke-opacity="1" stroke-miterlimit="10"/><path fill="none" stroke="rgb(0,0,0)" paint-order="fill stroke markers" d=" M -404.5 549.5 L -401.5 549.5" stroke-opacity="1" stroke-miterlimit="10"/><path fill="none" stroke="rgb(0,0,0)" paint-order="fill stroke markers" d=" M -404.5 458.5 L -401.5 458.5" stroke-opacity="1" stroke-miterlimit="10"/><path fill="none" stroke="rgb(0,0,0)" paint-order="fill stroke markers" d=" M -404.5 368.5 L -401.5 368.5" stroke-opacity="1" stroke-miterlimit="10"/><path fill="none" stroke="rgb(0,0,0)" paint-order="fill stroke markers" d=" M -404.5 188.5 L -401.5 188.5" stroke-opacity="1" stroke-miterlimit="10"/><path fill="none" stroke="rgb(0,0,0)" paint-order="fill stroke markers" d=" M -404.5 97.5 L -401.5 97.5" stroke-opacity="1" stroke-miterlimit="10"/><path fill="none" stroke="rgb(0,153,255)" paint-order="fill stroke markers" d=" M 181.0546874999999 580.7124379639673 L 182.8125 570.8264937311496 L 184.5703125 561.1034198890388 L 186.328125 551.5420165994525 L 188.0859375 542.14108402421 L 189.84375 532.8994223251292 L 191.6015625 523.8158316640288 L 193.359375 514.8891122027278 L 195.1171875 506.11806410304416 L 196.875 497.50148752679763 L 198.6328125 489.03818263580547 L 200.3906249999999 480.72694959188766 L 202.1484375 472.5665885568614 L 203.90625 464.5558996925463 L 205.6640625 456.6936831607605 L 207.421875 448.9787391233232 L 209.1796875 441.40986774205237 L 210.9375 433.98586917876685 L 212.6953125 426.7055435952853 L 214.453125 419.5676911534259 L 216.2109375 412.5711120150082 L 217.96875 405.7146063418495 L 219.7265624999999 398.99697429577 L 221.484375 392.41701603858684 L 223.2421875 385.9735317321195 L 225 379.6653215381863 L 226.7578125 373.491185618606 L 228.515625 367.44992413519697 L 230.2734375 361.5403372497776 L 232.03125 355.7612251241677 L 233.7890625 350.11138792018437 L 235.546875 344.5896257996474 L 237.3046875 339.19473892437446 L 239.0625 333.9255274561847 L 240.8203125 328.7807915568967 L 242.578125 323.759331388329 L 246.09375 314.08143889062893 L 249.609375 304.88225125763313 L 253.125 296.15216978389077 L 256.640625 287.88159576395077 L 260.15625 280.06093049236205 L 263.671875 272.6805752636733 L 267.1875 265.7309313724334 L 270.703125 259.2024001131914 L 274.21875 253.085382780496 L 277.734375 247.3702806688962 L 281.25 242.04749507294088 L 284.765625 237.1074272871789 L 288.28125 232.54047860615913 L 291.796875 228.3370503244306 L 295.3125 224.4875437365419 L 298.828125 220.98236013704224 L 302.34375 217.8119008204804 L 305.859375 214.96656708140506 L 309.375 212.4367602143654 L 312.8906249999999 210.2128815139102 L 316.40625 208.2853322745882 L 319.921875 206.64451379094842 L 323.4374999999999 205.28082735753983 L 326.953125 204.18467426891112 L 330.46875 203.34645581961138 L 333.984375 202.75657330418932 L 337.5 202.40542801719388 L 341.015625 202.28342125317397 L 344.53125 202.38095430667852 L 348.046875 202.68842847225628 L 351.5625000000001 203.19624504445633 L 355.0781249999999 203.89480531782732 L 358.5937500000001 204.77451058691838 L 362.1093749999999 205.82576214627812 L 365.625 207.03896129045572 L 369.140625 208.40450931399985 L 372.65625 209.9128075114595 L 376.171875 211.5542571773835 L 379.6875 213.31925960632077 L 383.203125 215.19821609282016 L 386.71875 217.18152793143062 L 390.2343750000001 219.25959641670107 L 393.7499999999999 221.42282284318014 L 397.2656250000001 223.6616085054171 L 400.7812499999999 225.9663546979604 L 404.296875 228.3274627153594 L 407.8125 230.73533385216263 L 411.328125 233.1803694029191 L 414.84375 235.65297066217767 L 418.359375 238.14353892448725 L 421.875 240.64247548439667 L 425.3906249999999 243.1401816364549 L 428.9062500000001 245.62705867521092 L 432.4218749999999 248.09350789521324 L 435.9375 250.5299305910112 L 439.4531249999999 252.92672805715324 L 442.96875 255.27430158818873 L 446.484375 257.5630524786662 L 450 259.7833820231346 L 453.515625 261.9256915161429 L 457.03125 263.9803822522399 L 460.5468750000001 265.93785552597467 L 464.0624999999999 267.78851263189574 L 467.5781250000001 269.5227548645523 L 471.0937499999999 271.1309835184931 L 474.609375 272.6035998882672 L 478.125 273.93100526842323 L 481.640625 275.10360095351024 L 485.15625 276.11178823807705 L 488.671875 276.9459684166726 L 492.1875 277.59654278384573 L 495.703125 278.0539126341454 L 499.2187500000001 278.3084792621204 L 502.7343749999999 278.35064396231957 L 506.2500000000001 278.17080802929195 L 509.7656249999999 277.7593727575864 L 513.28125 277.10673944175164 L 516.796875 276.20330937633673 L 520.3125 275.0394838558905 L 523.828125 273.6056641749619 L 527.34375 271.89225162809964 L 530.859375 269.8896475098528 L 534.375 267.58825311477017 L 537.8906250000001 264.9784697374005 L 541.4062499999999 262.0506986722931 L 544.9218750000001 258.79534121399627 L 548.4374999999999 255.20279865705953 L 551.953125 251.2634722960311 L 555.46875 246.96776342546036 L 558.984375 242.30607333989607 L 562.5 237.2688033338871 L 566.015625 231.84635470198228 L 569.53125 226.02912873873055 L 573.046875 219.8075267386808 L 576.5625000000001 213.17194999638156 L 580.0781249999999 206.11279980638272 L 583.5937500000001 198.6204774632318 L 587.1093749999999 190.68538426147913 L 590.625 182.29792149567209 L 594.140625 173.4484904603607 L 597.65625 164.12749245009346 L 601.171875 154.32532875941925 L 602.9296875000001 149.24081018847588 L 604.6875 144.03240068288702 L 606.4453124999999 138.69890040447092 L 608.203125 133.23910951504558 L 609.9609375 127.6518281764302 L 611.71875 121.93585655044384 L 613.4765625 116.08999479890414 L 615.2343750000001 110.11304308363017 L 616.9921875 104.00380156644113 L 618.7499999999999 97.76107040915508 L 620.5078125 91.38364977359004 L 622.2656250000001 84.87033982156521 L 624.0234375 78.21994071489974 L 625.78125 71.43125261541175 L 627.5390625 64.50307568491914 L 629.296875 57.434210085241176 L 631.0546875 50.22345597819708 L 632.8125 42.86961352560422 L 634.5703125 35.37148288928185 L 636.328125 27.727864231049267 L 638.0859375 19.9375577127243 L 639.84375 11.999363496125 L 641.6015625 3.912081743070587 L 643.359375 -4.325487384619521 L 645.1171874999998 -12.714543725127555" stroke-opacity="0.8" stroke-linecap="round" stroke-linejoin="round" stroke-miterlimit="10" stroke-width="2.5"/><text fill="rgb(0,153,255)" stroke="none" font-family="geogebra-sans-serif, sans-serif" font-size="16px" font-style="normal" font-weight="normal" text-decoration="normal" x="194" y="561" text-anchor="start" dominant-baseline="alphabetic" fill-opacity="1">f</text><text fill="none" stroke="rgb(255,255,255)" font-family="geogebra-sans-serif, sans-serif" font-size="16px" font-style="normal" font-weight="normal" text-decoration="normal" x="194" y="561" text-anchor="start" dominant-baseline="alphabetic" stroke-opacity="1" stroke-linejoin="bevel" stroke-miterlimit="10" stroke-width="3">f</text><text fill="rgb(0,153,255)" stroke="none" font-family="geogebra-sans-serif, sans-serif" font-size="16px" font-style="normal" font-weight="normal" text-decoration="normal" x="194" y="561" text-anchor="start" dominant-baseline="alphabetic" fill-opacity="1">f</text><path fill="none" stroke="rgb(255,192,203)" paint-order="fill stroke markers" d=" M 230.86395263671875 288.91688128917787 L 230.877685546875 288.9031483790222 L 232.03125 287.74958392589735 L 235.546875 284.23395892589764 L 239.0625 280.718333925898 L 242.578125 277.2027089258995 L 246.09375 273.68708392589986 L 249.609375 270.17145892590014 L 253.125 266.65583392590173 L 256.640625 263.140208925902 L 260.15625 259.6245839259036 L 263.671875 256.1089589259039 L 267.1875 252.59333392590418 L 270.703125 249.07770892590577 L 274.21875 245.56208392590605 L 277.734375 242.04645892590636 L 281.25 238.53083392590793 L 284.765625 235.01520892590824 L 288.28125 231.49958392590852 L 291.796875 227.98395892591012 L 295.3125 224.46833392591043 L 298.828125 220.952708925912 L 302.34375 217.4370839259123 L 305.859375 213.9214589259126 L 309.375 210.40583392591418 L 312.8906249999999 206.89020892591446 L 316.40625 203.37458392591475 L 319.921875 199.85895892591634 L 323.4374999999999 196.34333392591662 L 326.953125 192.82770892591694 L 330.46875 189.3120839259185 L 333.984375 185.7964589259188 L 337.5 182.28083392592038 L 341.015625 178.7652089259207 L 344.53125 175.249583925921 L 348.046875 171.73395892592256" stroke-opacity="1" stroke-linecap="round" stroke-linejoin="round" stroke-miterlimit="10" stroke-width="2.5"/><path fill="none" stroke="rgb(21,101,192)" paint-order="fill stroke markers" d=" M 118.7554450578692 571 L 694.7554450579942 -5" stroke-opacity="0.8" stroke-linecap="round" stroke-linejoin="round" stroke-miterlimit="10" stroke-width="2.5"/><text fill="rgb(21,101,192)" stroke="none" font-family="geogebra-sans-serif, sans-serif" font-size="16px" font-style="normal" font-weight="normal" text-decoration="normal" x="142" y="561" text-anchor="start" dominant-baseline="alphabetic" fill-opacity="1">g</text><text fill="none" stroke="rgb(255,255,255)" font-family="geogebra-sans-serif, sans-serif" font-size="16px" font-style="normal" font-weight="normal" text-decoration="normal" x="142" y="561" text-anchor="start" dominant-baseline="alphabetic" stroke-opacity="1" stroke-linejoin="bevel" stroke-miterlimit="10" stroke-width="3">g</text><text fill="rgb(21,101,192)" stroke="none" font-family="geogebra-sans-serif, sans-serif" font-size="16px" font-style="normal" font-weight="normal" text-decoration="normal" x="142" y="561" text-anchor="start" dominant-baseline="alphabetic" fill-opacity="1">g</text><path fill="rgb(97,97,97)" stroke="none" paint-order="stroke fill markers" d=" M 203.0820808235103 491.6733642343766 C 203.0820808235103 494.43478798353055 200.84350457266427 496.6733642343766 198.0820808235103 496.6733642343766 C 195.32065707435632 496.6733642343766 193.0820808235103 494.43478798353055 193.0820808235103 491.6733642343766 C 193.0820808235103 488.91194048522266 195.32065707435632 486.6733642343766 198.0820808235103 486.6733642343766 C 200.84350457266427 486.6733642343766 203.0820808235103 488.91194048522266 203.0820808235103 491.6733642343766 Z" fill-opacity="1"/><path fill="none" stroke="rgb(0,0,0)" paint-order="fill stroke markers" d=" M 203.0820808235103 491.6733642343766 C 203.0820808235103 494.43478798353055 200.84350457266427 496.6733642343766 198.0820808235103 496.6733642343766 C 195.32065707435632 496.6733642343766 193.0820808235103 494.43478798353055 193.0820808235103 491.6733642343766 C 193.0820808235103 488.91194048522266 195.32065707435632 486.6733642343766 198.0820808235103 486.6733642343766 C 200.84350457266427 486.6733642343766 203.0820808235103 488.91194048522266 203.0820808235103 491.6733642343766 Z" stroke-opacity="1" stroke-linecap="round" stroke-linejoin="round" stroke-miterlimit="10"/><g transform="scale(19,19)"><g transform="translate(10.842105263157896,24.960526315789473)"><path fill="rgb(97,97,97)" stroke="none" paint-order="stroke fill markers" d=" M 0.367 -0.4 L 0.367 -0.4 L 0.307 -0.083 Q 0.298 -0.021 0.271 0.059000000000000004 Q 0.261 0.088 0.251 0.108 Q 0.216 0.182 0.164 0.2 Q 0.151 0.20500000000000002 0.138 0.20500000000000002 Q 0.088 0.20500000000000002 0.064 0.171 Q 0.053 0.156 0.053 0.136 Q 0.053 0.096 0.08700000000000001 0.081 Q 0.097 0.076 0.108 0.076 Q 0.137 0.076 0.14400000000000002 0.101 Q 0.145 0.106 0.145 0.111 Q 0.145 0.145 0.115 0.159 Q 0.10400000000000001 0.164 0.09 0.165 Q 0.109 0.183 0.138 0.183 Q 0.182 0.183 0.20700000000000002 0.085 Q 0.212 0.062 0.219 0.025 L 0.225 -0.005 L 0.3 -0.4 L 0.234 -0.4 Q 0.209 -0.4 0.20700000000000002 -0.40800000000000003 L 0.20600000000000002 -0.40800000000000003 L 0.20600000000000002 -0.41200000000000003 Q 0.20600000000000002 -0.429 0.223 -0.431 L 0.223 -0.431 L 0.23600000000000002 -0.431 L 0.305 -0.431 Q 0.329 -0.556 0.338 -0.588 Q 0.368 -0.6880000000000001 0.444 -0.7030000000000001 Q 0.455 -0.705 0.465 -0.705 Q 0.517 -0.705 0.541 -0.671 L 0.541 -0.671 Q 0.552 -0.656 0.552 -0.636 Q 0.552 -0.596 0.518 -0.581 Q 0.508 -0.5760000000000001 0.497 -0.5760000000000001 Q 0.468 -0.5760000000000001 0.461 -0.601 Q 0.46 -0.606 0.46 -0.611 Q 0.46 -0.642 0.488 -0.657 Q 0.499 -0.664 0.514 -0.665 Q 0.495 -0.683 0.465 -0.683 Q 0.434 -0.683 0.418 -0.649 Q 0.41100000000000003 -0.635 0.394 -0.545 L 0.373 -0.431 L 0.456 -0.431 Q 0.481 -0.431 0.483 -0.42 Q 0.483 -0.402 0.467 -0.4 L 0.466 -0.4 L 0.453 -0.4 L 0.367 -0.4 Z"/></g><g transform="translate(11.440105263157896,24.960526315789473)"><path fill="rgb(97,97,97)" stroke="none" paint-order="stroke fill markers" d=" M 0.331 0.24 L 0.331 0.24 Q 0.331 0.25 0.321 0.25 Q 0.309 0.25 0.268 0.209 Q 0.20600000000000002 0.147 0.165 0.062 Q 0.099 -0.074 0.099 -0.25 Q 0.099 -0.419 0.162 -0.555 Q 0.214 -0.666 0.294 -0.733 Q 0.315 -0.75 0.321 -0.75 Q 0.331 -0.75 0.331 -0.74 Q 0.331 -0.735 0.318 -0.723 Q 0.157 -0.559 0.157 -0.25 Q 0.157 0.058 0.314 0.218 Q 0.331 0.23500000000000001 0.331 0.24 Z"/></g><g transform="translate(11.829105263157896,24.960526315789473)"><path fill="rgb(97,97,97)" stroke="none" paint-order="stroke fill markers" d=" M 0.373 -0.378 Q 0.378 -0.41200000000000003 0.404 -0.42 Q 0.40900000000000003 -0.422 0.41500000000000004 -0.422 Q 0.441 -0.422 0.444 -0.395 Q 0.444 -0.389 0.437 -0.361 L 0.401 -0.221 Q 0.386 -0.158 0.379 -0.131 Q 0.366 -0.079 0.366 -0.057 Q 0.366 -0.011 0.396 -0.011 Q 0.434 -0.011 0.46 -0.091 Q 0.465 -0.108 0.47200000000000003 -0.135 Q 0.48 -0.152 0.486 -0.153 Q 0.498 -0.153 0.498 -0.14300000000000002 Q 0.498 -0.128 0.48 -0.073 Q 0.47400000000000003 -0.056 0.468 -0.044 Q 0.44 0.011 0.394 0.011 Q 0.338 0.011 0.313 -0.037 Q 0.306 -0.049 0.303 -0.064 Q 0.24 0.011 0.17300000000000001 0.011 Q 0.098 0.011 0.062 -0.057 Q 0.04 -0.097 0.04 -0.149 Q 0.04 -0.257 0.115 -0.34900000000000003 Q 0.185 -0.433 0.267 -0.441 Q 0.274 -0.442 0.281 -0.442 Q 0.342 -0.442 0.373 -0.378 M 0.308 -0.11900000000000001 L 0.308 -0.11900000000000001 L 0.358 -0.315 Q 0.361 -0.33 0.361 -0.332 Q 0.361 -0.353 0.343 -0.383 Q 0.321 -0.42 0.28200000000000003 -0.42 Q 0.23 -0.42 0.183 -0.352 Q 0.17400000000000002 -0.339 0.166 -0.324 Q 0.137 -0.266 0.117 -0.159 Q 0.111 -0.125 0.111 -0.105 Q 0.111 -0.037 0.149 -0.017 Q 0.16 -0.011 0.17500000000000002 -0.011 Q 0.231 -0.011 0.28800000000000003 -0.082 Q 0.302 -0.098 0.307 -0.115 L 0.307 -0.116 Q 0.308 -0.11800000000000001 0.308 -0.11900000000000001 Z"/></g><g transform="translate(12.358105263157896,24.960526315789473)"><path fill="rgb(97,97,97)" stroke="none" paint-order="stroke fill markers" d=" M 0.289 -0.25 L 0.289 -0.25 Q 0.289 -0.081 0.226 0.055 Q 0.17400000000000002 0.166 0.094 0.233 Q 0.073 0.25 0.067 0.25 Q 0.057 0.25 0.057 0.24 Q 0.057 0.23500000000000001 0.07 0.223 Q 0.231 0.059000000000000004 0.231 -0.25 Q 0.231 -0.555 0.081 -0.712 L 0.076 -0.717 Q 0.057 -0.735 0.057 -0.74 Q 0.057 -0.75 0.067 -0.75 Q 0.079 -0.75 0.12 -0.709 Q 0.182 -0.647 0.223 -0.562 Q 0.289 -0.426 0.289 -0.25 Z"/></g></g><path fill="rgb(97,97,97)" stroke="none" paint-order="stroke fill markers" d=" M 633.3016368801652 61.45380817781634 C 633.3016368801652 64.2152319269703 631.0630606293192 66.45380817781634 628.3016368801652 66.45380817781634 C 625.5402131310112 66.45380817781634 623.3016368801652 64.2152319269703 623.3016368801652 61.45380817781634 C 623.3016368801652 58.69238442866237 625.5402131310112 56.45380817781634 628.3016368801652 56.45380817781634 C 631.0630606293192 56.45380817781634 633.3016368801652 58.69238442866237 633.3016368801652 61.45380817781634 Z" fill-opacity="1"/><path fill="none" stroke="rgb(0,0,0)" paint-order="fill stroke markers" d=" M 633.3016368801652 61.45380817781634 C 633.3016368801652 64.2152319269703 631.0630606293192 66.45380817781634 628.3016368801652 66.45380817781634 C 625.5402131310112 66.45380817781634 623.3016368801652 64.2152319269703 623.3016368801652 61.45380817781634 C 623.3016368801652 58.69238442866237 625.5402131310112 56.45380817781634 628.3016368801652 56.45380817781634 C 631.0630606293192 56.45380817781634 633.3016368801652 58.69238442866237 633.3016368801652 61.45380817781634 Z" stroke-opacity="1" stroke-linecap="round" stroke-linejoin="round" stroke-miterlimit="10"/><g transform="scale(19,19)"><g transform="translate(33.473684210526315,2.276315789473684)"><path fill="rgb(97,97,97)" stroke="none" paint-order="stroke fill markers" d=" M 0.367 -0.4 L 0.367 -0.4 L 0.307 -0.083 Q 0.298 -0.021 0.271 0.059000000000000004 Q 0.261 0.088 0.251 0.108 Q 0.216 0.182 0.164 0.2 Q 0.151 0.20500000000000002 0.138 0.20500000000000002 Q 0.088 0.20500000000000002 0.064 0.171 Q 0.053 0.156 0.053 0.136 Q 0.053 0.096 0.08700000000000001 0.081 Q 0.097 0.076 0.108 0.076 Q 0.137 0.076 0.14400000000000002 0.101 Q 0.145 0.106 0.145 0.111 Q 0.145 0.145 0.115 0.159 Q 0.10400000000000001 0.164 0.09 0.165 Q 0.109 0.183 0.138 0.183 Q 0.182 0.183 0.20700000000000002 0.085 Q 0.212 0.062 0.219 0.025 L 0.225 -0.005 L 0.3 -0.4 L 0.234 -0.4 Q 0.209 -0.4 0.20700000000000002 -0.40800000000000003 L 0.20600000000000002 -0.40800000000000003 L 0.20600000000000002 -0.41200000000000003 Q 0.20600000000000002 -0.429 0.223 -0.431 L 0.223 -0.431 L 0.23600000000000002 -0.431 L 0.305 -0.431 Q 0.329 -0.556 0.338 -0.588 Q 0.368 -0.6880000000000001 0.444 -0.7030000000000001 Q 0.455 -0.705 0.465 -0.705 Q 0.517 -0.705 0.541 -0.671 L 0.541 -0.671 Q 0.552 -0.656 0.552 -0.636 Q 0.552 -0.596 0.518 -0.581 Q 0.508 -0.5760000000000001 0.497 -0.5760000000000001 Q 0.468 -0.5760000000000001 0.461 -0.601 Q 0.46 -0.606 0.46 -0.611 Q 0.46 -0.642 0.488 -0.657 Q 0.499 -0.664 0.514 -0.665 Q 0.495 -0.683 0.465 -0.683 Q 0.434 -0.683 0.418 -0.649 Q 0.41100000000000003 -0.635 0.394 -0.545 L 0.373 -0.431 L 0.456 -0.431 Q 0.481 -0.431 0.483 -0.42 Q 0.483 -0.402 0.467 -0.4 L 0.466 -0.4 L 0.453 -0.4 L 0.367 -0.4 Z"/></g><g transform="translate(34.071684210526314,2.276315789473684)"><path fill="rgb(97,97,97)" stroke="none" paint-order="stroke fill markers" d=" M 0.331 0.24 L 0.331 0.24 Q 0.331 0.25 0.321 0.25 Q 0.309 0.25 0.268 0.209 Q 0.20600000000000002 0.147 0.165 0.062 Q 0.099 -0.074 0.099 -0.25 Q 0.099 -0.419 0.162 -0.555 Q 0.214 -0.666 0.294 -0.733 Q 0.315 -0.75 0.321 -0.75 Q 0.331 -0.75 0.331 -0.74 Q 0.331 -0.735 0.318 -0.723 Q 0.157 -0.559 0.157 -0.25 Q 0.157 0.058 0.314 0.218 Q 0.331 0.23500000000000001 0.331 0.24 Z"/></g><g transform="translate(34.46068421052632,2.276315789473684)"><path fill="rgb(97,97,97)" stroke="none" paint-order="stroke fill markers" d=" M 0.23900000000000002 -0.683 L 0.165 -0.382 Q 0.223 -0.442 0.28200000000000003 -0.442 Q 0.357 -0.442 0.394 -0.373 Q 0.41500000000000004 -0.333 0.41500000000000004 -0.28200000000000003 Q 0.41500000000000004 -0.176 0.341 -0.084 Q 0.272 0.001 0.189 0.01 Q 0.181 0.011 0.17400000000000002 0.011 Q 0.10200000000000001 0.011 0.067 -0.056 Q 0.047 -0.094 0.047 -0.146 Q 0.047 -0.18 0.063 -0.247 L 0.145 -0.5730000000000001 Q 0.159 -0.632 0.159 -0.635 Q 0.159 -0.646 0.145 -0.649 L 0.145 -0.649 Q 0.133 -0.652 0.109 -0.652 Q 0.08700000000000001 -0.652 0.085 -0.664 Q 0.085 -0.681 0.10400000000000001 -0.684 L 0.226 -0.6940000000000001 Q 0.23900000000000002 -0.6940000000000001 0.23900000000000002 -0.683 M 0.145 -0.305 L 0.123 -0.213 Q 0.107 -0.15 0.107 -0.112 Q 0.107 -0.026000000000000002 0.159 -0.013000000000000001 Q 0.166 -0.011 0.17400000000000002 -0.011 Q 0.227 -0.011 0.273 -0.081 Q 0.28300000000000003 -0.096 0.292 -0.114 Q 0.319 -0.171 0.337 -0.268 Q 0.343 -0.303 0.343 -0.326 Q 0.343 -0.406 0.294 -0.418 L 0.293 -0.419 Q 0.28700000000000003 -0.42 0.28 -0.42 Q 0.22 -0.42 0.16 -0.34 Q 0.152 -0.33 0.145 -0.305 Z"/></g><g transform="translate(34.88968421052632,2.276315789473684)"><path fill="rgb(97,97,97)" stroke="none" paint-order="stroke fill markers" d=" M 0.289 -0.25 L 0.289 -0.25 Q 0.289 -0.081 0.226 0.055 Q 0.17400000000000002 0.166 0.094 0.233 Q 0.073 0.25 0.067 0.25 Q 0.057 0.25 0.057 0.24 Q 0.057 0.23500000000000001 0.07 0.223 Q 0.231 0.059000000000000004 0.231 -0.25 Q 0.231 -0.555 0.081 -0.712 L 0.076 -0.717 Q 0.057 -0.735 0.057 -0.74 Q 0.057 -0.75 0.067 -0.75 Q 0.079 -0.75 0.12 -0.709 Q 0.182 -0.647 0.223 -0.562 Q 0.289 -0.426 0.289 -0.25 Z"/></g></g><path fill="rgb(21,101,192)" stroke="none" paint-order="stroke fill markers" d=" M 301.77038601178674 222.99935677513633 C 301.77038601178674 225.7607805242903 299.5318097609407 227.99935677513633 296.77038601178674 227.99935677513633 C 294.0089622626328 227.99935677513633 291.77038601178674 225.7607805242903 291.77038601178674 222.99935677513633 C 291.77038601178674 220.23793302598236 294.0089622626328 217.99935677513633 296.77038601178674 217.99935677513633 C 299.5318097609407 217.99935677513633 301.77038601178674 220.23793302598236 301.77038601178674 222.99935677513633 Z" fill-opacity="1"/><path fill="none" stroke="rgb(0,0,0)" paint-order="fill stroke markers" d=" M 301.77038601178674 222.99935677513633 C 301.77038601178674 225.7607805242903 299.5318097609407 227.99935677513633 296.77038601178674 227.99935677513633 C 294.0089622626328 227.99935677513633 291.77038601178674 225.7607805242903 291.77038601178674 222.99935677513633 C 291.77038601178674 220.23793302598236 294.0089622626328 217.99935677513633 296.77038601178674 217.99935677513633 C 299.5318097609407 217.99935677513633 301.77038601178674 220.23793302598236 301.77038601178674 222.99935677513633 Z" stroke-opacity="1" stroke-linecap="round" stroke-linejoin="round" stroke-miterlimit="10"/><text fill="rgb(21,101,192)" stroke="none" font-family="geogebra-sans-serif, sans-serif" font-size="16px" font-style="normal" font-weight="normal" text-decoration="normal" x="301" y="213" text-anchor="start" dominant-baseline="alphabetic" fill-opacity="1">C</text><text fill="none" stroke="rgb(255,255,255)" font-family="geogebra-sans-serif, sans-serif" font-size="16px" font-style="normal" font-weight="normal" text-decoration="normal" x="301" y="213" text-anchor="start" dominant-baseline="alphabetic" stroke-opacity="1" stroke-linejoin="bevel" stroke-miterlimit="10" stroke-width="3">C</text><text fill="rgb(21,101,192)" stroke="none" font-family="geogebra-sans-serif, sans-serif" font-size="16px" font-style="normal" font-weight="normal" text-decoration="normal" x="301" y="213" text-anchor="start" dominant-baseline="alphabetic" fill-opacity="1">C</text></g></g></svg>