<svg version="1.1" xmlns="http://www.w3.org/2000/svg" xmlns:xlink="http://www.w3.org/1999/xlink" width="744" height="322"><defs><clipPath id="VXuEdgnhBWFT"><path fill="none" stroke="none" d=" M 0 0 L 744 0 L 744 322 L 0 322 L 0 0 Z"/></clipPath></defs><g transform="scale(1,1)" clip-path="url(#VXuEdgnhBWFT)"><g><rect fill="rgb(255,255,255)" stroke="none" x="0" y="0" width="744" height="322" fill-opacity="1"/><path fill="none" stroke="rgb(0,0,0)" paint-order="fill stroke markers" d=" M 0.5 329.5 L 742.5 329.5" stroke-opacity="1" stroke-miterlimit="10"/><path fill="none" stroke="rgb(0,0,0)" paint-order="fill stroke markers" d=" M 743.5 329.5 L 739.5 325.5" stroke-opacity="1" stroke-miterlimit="10"/><path fill="none" stroke="rgb(0,0,0)" paint-order="fill stroke markers" d=" M 743.5 329.5 L 739.5 333.5" stroke-opacity="1" stroke-miterlimit="10"/><path fill="none" stroke="rgb(0,0,0)" paint-order="fill stroke markers" d=" M -68.5 329.5 L -68.5 332.5" stroke-opacity="1" stroke-miterlimit="10"/><path fill="none" stroke="rgb(0,0,0)" paint-order="fill stroke markers" d=" M 4.5 329.5 L 4.5 332.5" stroke-opacity="1" stroke-miterlimit="10"/><path fill="none" stroke="rgb(0,0,0)" paint-order="fill stroke markers" d=" M 77.5 329.5 L 77.5 332.5" stroke-opacity="1" stroke-miterlimit="10"/><path fill="none" stroke="rgb(0,0,0)" paint-order="fill stroke markers" d=" M 151.5 329.5 L 151.5 332.5" stroke-opacity="1" stroke-miterlimit="10"/><path fill="none" stroke="rgb(0,0,0)" paint-order="fill stroke markers" d=" M 224.5 329.5 L 224.5 332.5" stroke-opacity="1" stroke-miterlimit="10"/><path fill="none" stroke="rgb(0,0,0)" paint-order="fill stroke markers" d=" M 297.5 329.5 L 297.5 332.5" stroke-opacity="1" stroke-miterlimit="10"/><path fill="none" stroke="rgb(0,0,0)" paint-order="fill stroke markers" d=" M 370.5 329.5 L 370.5 332.5" stroke-opacity="1" stroke-miterlimit="10"/><path fill="none" stroke="rgb(0,0,0)" paint-order="fill stroke markers" d=" M 443.5 329.5 L 443.5 332.5" stroke-opacity="1" stroke-miterlimit="10"/><path fill="none" stroke="rgb(0,0,0)" paint-order="fill stroke markers" d=" M 517.5 329.5 L 517.5 332.5" stroke-opacity="1" stroke-miterlimit="10"/><path fill="none" stroke="rgb(0,0,0)" paint-order="fill stroke markers" d=" M 590.5 329.5 L 590.5 332.5" stroke-opacity="1" stroke-miterlimit="10"/><path fill="none" stroke="rgb(0,0,0)" paint-order="fill stroke markers" d=" M 663.5 329.5 L 663.5 332.5" stroke-opacity="1" stroke-miterlimit="10"/><path fill="none" stroke="rgb(0,0,0)" paint-order="fill stroke markers" d=" M -144.5 329.5 L -141.5 329.5" stroke-opacity="1" stroke-miterlimit="10"/><path fill="none" stroke="rgb(0,0,0)" paint-order="fill stroke markers" d=" M -144.5 255.5 L -141.5 255.5" stroke-opacity="1" stroke-miterlimit="10"/><path fill="none" stroke="rgb(0,0,0)" paint-order="fill stroke markers" d=" M -144.5 182.5 L -141.5 182.5" stroke-opacity="1" stroke-miterlimit="10"/><path fill="none" stroke="rgb(0,0,0)" paint-order="fill stroke markers" d=" M -144.5 109.5 L -141.5 109.5" stroke-opacity="1" stroke-miterlimit="10"/><path fill="none" stroke="rgb(0,0,0)" paint-order="fill stroke markers" d=" M -144.5 36.5 L -141.5 36.5" stroke-opacity="1" stroke-miterlimit="10"/><text fill="rgb(0,0,0)" stroke="none" font-family="geogebra-sans-serif, sans-serif" font-size="12px" font-style="normal" font-weight="normal" text-decoration="normal" x="3" y="260" text-anchor="start" dominant-baseline="alphabetic" fill-opacity="1">1</text><text fill="none" stroke="rgb(255,255,255)" font-family="geogebra-sans-serif, sans-serif" font-size="12px" font-style="normal" font-weight="normal" text-decoration="normal" x="3" y="260" text-anchor="start" dominant-baseline="alphabetic" stroke-opacity="1" stroke-linejoin="bevel" stroke-miterlimit="10" stroke-width="3">1</text><text fill="rgb(0,0,0)" stroke="none" font-family="geogebra-sans-serif, sans-serif" font-size="12px" font-style="normal" font-weight="normal" text-decoration="normal" x="3" y="260" text-anchor="start" dominant-baseline="alphabetic" fill-opacity="1">1</text><text fill="rgb(0,0,0)" stroke="none" font-family="geogebra-sans-serif, sans-serif" font-size="12px" font-style="normal" font-weight="normal" text-decoration="normal" x="3" y="187" text-anchor="start" dominant-baseline="alphabetic" fill-opacity="1">2</text><text fill="none" stroke="rgb(255,255,255)" font-family="geogebra-sans-serif, sans-serif" font-size="12px" font-style="normal" font-weight="normal" text-decoration="normal" x="3" y="187" text-anchor="start" dominant-baseline="alphabetic" stroke-opacity="1" stroke-linejoin="bevel" stroke-miterlimit="10" stroke-width="3">2</text><text fill="rgb(0,0,0)" stroke="none" font-family="geogebra-sans-serif, sans-serif" font-size="12px" font-style="normal" font-weight="normal" text-decoration="normal" x="3" y="187" text-anchor="start" dominant-baseline="alphabetic" fill-opacity="1">2</text><text fill="rgb(0,0,0)" stroke="none" font-family="geogebra-sans-serif, sans-serif" font-size="12px" font-style="normal" font-weight="normal" text-decoration="normal" x="3" y="114" text-anchor="start" dominant-baseline="alphabetic" fill-opacity="1">3</text><text fill="none" stroke="rgb(255,255,255)" font-family="geogebra-sans-serif, sans-serif" font-size="12px" font-style="normal" font-weight="normal" text-decoration="normal" x="3" y="114" text-anchor="start" dominant-baseline="alphabetic" stroke-opacity="1" stroke-linejoin="bevel" stroke-miterlimit="10" stroke-width="3">3</text><text fill="rgb(0,0,0)" stroke="none" font-family="geogebra-sans-serif, sans-serif" font-size="12px" font-style="normal" font-weight="normal" text-decoration="normal" x="3" y="114" text-anchor="start" dominant-baseline="alphabetic" fill-opacity="1">3</text><text fill="rgb(0,0,0)" stroke="none" font-family="geogebra-sans-serif, sans-serif" font-size="12px" font-style="normal" font-weight="normal" text-decoration="normal" x="3" y="41" text-anchor="start" dominant-baseline="alphabetic" fill-opacity="1">4</text><text fill="none" stroke="rgb(255,255,255)" font-family="geogebra-sans-serif, sans-serif" font-size="12px" font-style="normal" font-weight="normal" text-decoration="normal" x="3" y="41" text-anchor="start" dominant-baseline="alphabetic" stroke-opacity="1" stroke-linejoin="bevel" stroke-miterlimit="10" stroke-width="3">4</text><text fill="rgb(0,0,0)" stroke="none" font-family="geogebra-sans-serif, sans-serif" font-size="12px" font-style="normal" font-weight="normal" text-decoration="normal" x="3" y="41" text-anchor="start" dominant-baseline="alphabetic" fill-opacity="1">4</text><path fill="none" stroke="rgb(21,101,192)" paint-order="fill stroke markers" d=" M 0 114.3808193234907 L 5.8125 116.67123718181026 L 11.625 119.37803432062609 L 17.4375 122.48415494466383 L 23.25 125.9700270820527 L 29.06249999999997 129.81368590924714 L 34.875 133.99091215354272 L 40.6875 138.47538470109757 L 46.5 143.23884644886272 L 52.31249999999997 148.2512823553703 L 58.125 153.4811085684649 L 63.9375 158.89537143826578 L 69.74999999999997 164.45995516135923 L 75.5625 170.13979674783494 L 81.375 175.8991069566373 L 87.1875 181.7015958070974 L 93 187.5107012456739 L 98.8125 193.28981952705232 L 104.625 199.00253585794812 L 110.43750000000003 204.61285385030453 L 116.25 210.08542233807754 L 122.0625 215.3857581284142 L 127.875 220.48046328364532 L 133.6875 225.3374355649794 L 139.5 229.92607071186973 L 145.3125 234.21745528247334 L 151.125 238.1845488400948 L 156.9375 241.80235433764022 L 162.74999999999994 245.04807562647187 L 168.5625 247.90126109718548 L 174.375 250.34393254721454 L 180.18750000000006 252.36069846325478 L 186 253.93885100470482 L 191.81249999999994 255.06844607702118 L 197.625 255.7423659904369 L 203.4375 255.95636430922542 L 209.25 255.70909260891057 L 215.0625 255.00210897282153 L 220.875 253.83986817445674 L 226.68749999999994 252.22969360751716 L 232.5 250.18173114048176 L 238.3125 247.70888518649116 L 244.125 244.82673739137 L 249.9375 241.5534484521425 L 255.74999999999994 237.90964368469224 L 261.56249999999994 233.91828306161634 L 267.375 229.60451653917744 L 273.1875 224.99552558495319 L 279.00000000000006 220.1203519047327 L 284.8125 215.00971444786916 L 290.62499999999994 209.69581584415528 L 296.4375 204.2121394918825 L 302.25 198.59323857565195 L 308.0625 192.8745183433558 L 313.87500000000006 187.0920130142247 L 319.68749999999994 181.28215872366476 L 325.49999999999994 175.48156393558023 L 331.3125 169.72677876883904 L 337.125 164.0540646913747 L 342.93750000000006 158.49916603310658 L 348.74999999999994 153.0970847573982 L 354.56249999999994 147.88185991023926 L 360.37499999999994 142.8863531368663 L 366.1875 138.14204161729998 L 372.00000000000006 133.67881972553488 L 377.81250000000006 129.52481066214563 L 383.62499999999994 125.70618924723124 L 389.43749999999994 122.24701699029617 L 395.24999999999994 119.1690904763106 L 401.06250000000006 116.49180402328196 L 406.87500000000006 114.23202747674782 L 412.68749999999994 112.40399991121842 L 418.49999999999994 111.01923990836579 L 424.31249999999994 110.08647297730701 L 430.12499999999994 109.61157657431198 L 435.93750000000006 109.59754306837274 L 441.75000000000006 110.04446088599184 L 447.56249999999994 110.94951395399846 L 453.37499999999994 112.30699944390238 L 459.18749999999994 114.10836370597809 L 464.99999999999994 116.34225616665358 L 470.81250000000006 118.99460084959225 L 476.62500000000006 122.04868506980552 L 482.43749999999994 125.48526474192627 L 488.24999999999994 129.28268563908603 L 494.06249999999994 133.41701983832965 L 499.87500000000006 137.8622164928144 L 505.68750000000006 142.59026598076048 L 511.49999999999994 147.5713763968355 L 517.3125 152.77416127388372 L 523.125 158.16583735214522 L 528.9375 163.7124311498035 L 534.75 169.37899303323968 L 540.5625 175.12981743811451 L 546.375 180.92866785364498 L 552.1875 186.7390051524267 L 558 192.52421782707262 L 563.8125 198.24785268292618 L 569.625 203.87384453322983 L 575.4375 209.36674344941744 L 581.25 214.69193813460504 L 587.0625 219.81587401277943 L 592.875 224.70626465948578 L 598.6874999999998 229.33229524176693 L 604.5 233.66481668545978 L 610.3125 237.67652934638136 L 616.125 241.34215502807467 L 621.9375 244.63859626221358 L 627.75 247.54508184802472 L 633.5624999999998 250.04329773366845 L 639.375 252.11750241488312 L 645.1875 253.7546261237527 L 651 254.94435318260167 L 656.8125 255.67918700409547 L 662.625 255.9544973279755 L 668.4375 255.76854939678475 L 674.25 255.12251488674553 L 680.0625 254.02046452491214 L 685.875 252.46934243911878 L 691.6875 250.4789224023466 L 697.4999999999998 248.0617462472178 L 703.3125 245.23304483867318 L 709.125 242.01064210279293 L 714.9375 238.4148427164834 L 720.75 234.46830416570864 L 726.5625 230.19589397844072 L 732.375 225.62453303191757 L 738.1875 220.78302592154466 L 744 215.70187946030396" stroke-opacity="0.8" stroke-linecap="round" stroke-linejoin="round" stroke-miterlimit="10" stroke-width="2.5"/><text fill="rgb(21,101,192)" stroke="none" font-family="geogebra-sans-serif, sans-serif" font-size="16px" font-style="normal" font-weight="normal" text-decoration="normal" x="5" y="131" text-anchor="start" dominant-baseline="alphabetic" fill-opacity="1">f</text><text fill="none" stroke="rgb(255,255,255)" font-family="geogebra-sans-serif, sans-serif" font-size="16px" font-style="normal" font-weight="normal" text-decoration="normal" x="5" y="131" text-anchor="start" dominant-baseline="alphabetic" stroke-opacity="1" stroke-linejoin="bevel" stroke-miterlimit="10" stroke-width="3">f</text><text fill="rgb(21,101,192)" stroke="none" font-family="geogebra-sans-serif, sans-serif" font-size="16px" font-style="normal" font-weight="normal" text-decoration="normal" x="5" y="131" text-anchor="start" dominant-baseline="alphabetic" fill-opacity="1">f</text><path fill="none" stroke="rgb(255,192,203)" paint-order="fill stroke markers" d=" M 370.69445800781256 109.54666480090077 L 370.70581054687506 109.54666480090077 L 371.27343750000006 109.54666480090077 L 372.00000000000006 109.54666480090077 L 377.81250000000006 109.54666480090077 L 383.62499999999994 109.54666480090077 L 389.43749999999994 109.54666480090077 L 395.24999999999994 109.54666480090077 L 401.06250000000006 109.54666480090077 L 406.87500000000006 109.54666480090077 L 412.68749999999994 109.54666480090077 L 418.49999999999994 109.54666480090077 L 424.31249999999994 109.54666480090077 L 430.12499999999994 109.54666480090077 L 435.93750000000006 109.54666480090077 L 441.75000000000006 109.54666480090077 L 447.56249999999994 109.54666480090077 L 453.37499999999994 109.54666480090077 L 459.18749999999994 109.54666480090077 L 464.99999999999994 109.54666480090077 L 470.81250000000006 109.54666480090077 L 476.62500000000006 109.54666480090077 L 479.53124999999994 109.54666480090077 L 480.25781249999994 109.54666480090077" stroke-opacity="0.8" stroke-linecap="round" stroke-linejoin="round" stroke-miterlimit="10" stroke-width="2.5"/><text fill="rgb(255,192,203)" stroke="none" font-family="geogebra-sans-serif, sans-serif" font-size="16px" font-style="normal" font-weight="normal" text-decoration="normal" x="380" y="124" text-anchor="start" dominant-baseline="alphabetic" fill-opacity="1">p</text><text fill="none" stroke="rgb(255,255,255)" font-family="geogebra-sans-serif, sans-serif" font-size="16px" font-style="normal" font-weight="normal" text-decoration="normal" x="380" y="124" text-anchor="start" dominant-baseline="alphabetic" stroke-opacity="1" stroke-linejoin="bevel" stroke-miterlimit="10" stroke-width="3">p</text><text fill="rgb(255,192,203)" stroke="none" font-family="geogebra-sans-serif, sans-serif" font-size="16px" font-style="normal" font-weight="normal" text-decoration="normal" x="380" y="124" text-anchor="start" dominant-baseline="alphabetic" fill-opacity="1">p</text><path fill="none" stroke="rgb(255,192,203)" paint-order="fill stroke markers" d=" M 151.07958984375 255.95666480090136 L 151.09094238281244 255.95666480090136 L 156.9375 255.95666480090136 L 162.74999999999994 255.95666480090136 L 168.5625 255.95666480090136 L 174.375 255.95666480090136 L 180.18750000000006 255.95666480090136 L 186 255.95666480090136 L 191.81249999999994 255.95666480090136 L 197.625 255.95666480090136 L 203.4375 255.95666480090136 L 209.25 255.95666480090136 L 215.0625 255.95666480090136 L 220.875 255.95666480090136 L 226.68749999999994 255.95666480090136 L 232.5 255.95666480090136 L 238.3125 255.95666480090136 L 244.125 255.95666480090136 L 249.9375 255.95666480090136 L 255.74999999999994 255.95666480090136 L 258.65625 255.95666480090136 L 260.109375 255.95666480090136 L 260.8359375 255.95666480090136" stroke-opacity="0.8" stroke-linecap="round" stroke-linejoin="round" stroke-miterlimit="10" stroke-width="2.5"/><text fill="rgb(255,192,203)" stroke="none" font-family="geogebra-sans-serif, sans-serif" font-size="16px" font-style="normal" font-weight="normal" text-decoration="normal" x="161" y="270" text-anchor="start" dominant-baseline="alphabetic" fill-opacity="1">h</text><text fill="none" stroke="rgb(255,255,255)" font-family="geogebra-sans-serif, sans-serif" font-size="16px" font-style="normal" font-weight="normal" text-decoration="normal" x="161" y="270" text-anchor="start" dominant-baseline="alphabetic" stroke-opacity="1" stroke-linejoin="bevel" stroke-miterlimit="10" stroke-width="3">h</text><text fill="rgb(255,192,203)" stroke="none" font-family="geogebra-sans-serif, sans-serif" font-size="16px" font-style="normal" font-weight="normal" text-decoration="normal" x="161" y="270" text-anchor="start" dominant-baseline="alphabetic" fill-opacity="1">h</text><path fill="none" stroke="rgb(0,0,0)" paint-order="fill stroke markers" d=" M -5 182.7516648009011 L 749 182.75166480090104" stroke-opacity="0.6980392156862745" stroke-linecap="round" stroke-linejoin="round" stroke-miterlimit="10" stroke-width="2.5"/><text fill="rgb(0,0,0)" stroke="none" font-family="geogebra-sans-serif, sans-serif" font-size="16px" font-style="normal" font-weight="normal" text-decoration="normal" x="5" y="174" text-anchor="start" dominant-baseline="alphabetic" fill-opacity="1">i</text><text fill="none" stroke="rgb(255,255,255)" font-family="geogebra-sans-serif, sans-serif" font-size="16px" font-style="normal" font-weight="normal" text-decoration="normal" x="5" y="174" text-anchor="start" dominant-baseline="alphabetic" stroke-opacity="1" stroke-linejoin="bevel" stroke-miterlimit="10" stroke-width="3">i</text><text fill="rgb(0,0,0)" stroke="none" font-family="geogebra-sans-serif, sans-serif" font-size="16px" font-style="normal" font-weight="normal" text-decoration="normal" x="5" y="174" text-anchor="start" dominant-baseline="alphabetic" fill-opacity="1">i</text><path fill="rgb(97,97,97)" stroke="none" paint-order="stroke fill markers" d=" M 93.2376050069428 182.75166480090107 C 93.2376050069428 185.51308855005504 90.99902875609676 187.75166480090107 88.2376050069428 187.75166480090107 C 85.47618125778884 187.75166480090107 83.2376050069428 185.51308855005504 83.2376050069428 182.75166480090107 C 83.2376050069428 179.9902410517471 85.47618125778884 177.75166480090107 88.2376050069428 177.75166480090107 C 90.99902875609676 177.75166480090107 93.2376050069428 179.9902410517471 93.2376050069428 182.75166480090107 Z" fill-opacity="1"/><path fill="none" stroke="rgb(0,0,0)" paint-order="fill stroke markers" d=" M 93.2376050069428 182.75166480090107 C 93.2376050069428 185.51308855005504 90.99902875609676 187.75166480090107 88.2376050069428 187.75166480090107 C 85.47618125778884 187.75166480090107 83.2376050069428 185.51308855005504 83.2376050069428 182.75166480090107 C 83.2376050069428 179.9902410517471 85.47618125778884 177.75166480090107 88.2376050069428 177.75166480090107 C 90.99902875609676 177.75166480090107 93.2376050069428 179.9902410517471 93.2376050069428 182.75166480090107 Z" stroke-opacity="1" stroke-linecap="round" stroke-linejoin="round" stroke-miterlimit="10"/><g transform="scale(19,19)"><g transform="translate(5.052631578947368,8.697368421052632)"><path fill="rgb(97,97,97)" stroke="none" paint-order="stroke fill markers" d=" M 0.367 -0.4 L 0.367 -0.4 L 0.307 -0.083 Q 0.298 -0.021 0.271 0.059000000000000004 Q 0.261 0.088 0.251 0.108 Q 0.216 0.182 0.164 0.2 Q 0.151 0.20500000000000002 0.138 0.20500000000000002 Q 0.088 0.20500000000000002 0.064 0.171 Q 0.053 0.156 0.053 0.136 Q 0.053 0.096 0.08700000000000001 0.081 Q 0.097 0.076 0.108 0.076 Q 0.137 0.076 0.14400000000000002 0.101 Q 0.145 0.106 0.145 0.111 Q 0.145 0.145 0.115 0.159 Q 0.10400000000000001 0.164 0.09 0.165 Q 0.109 0.183 0.138 0.183 Q 0.182 0.183 0.20700000000000002 0.085 Q 0.212 0.062 0.219 0.025 L 0.225 -0.005 L 0.3 -0.4 L 0.234 -0.4 Q 0.209 -0.4 0.20700000000000002 -0.40800000000000003 L 0.20600000000000002 -0.40800000000000003 L 0.20600000000000002 -0.41200000000000003 Q 0.20600000000000002 -0.429 0.223 -0.431 L 0.223 -0.431 L 0.23600000000000002 -0.431 L 0.305 -0.431 Q 0.329 -0.556 0.338 -0.588 Q 0.368 -0.6880000000000001 0.444 -0.7030000000000001 Q 0.455 -0.705 0.465 -0.705 Q 0.517 -0.705 0.541 -0.671 L 0.541 -0.671 Q 0.552 -0.656 0.552 -0.636 Q 0.552 -0.596 0.518 -0.581 Q 0.508 -0.5760000000000001 0.497 -0.5760000000000001 Q 0.468 -0.5760000000000001 0.461 -0.601 Q 0.46 -0.606 0.46 -0.611 Q 0.46 -0.642 0.488 -0.657 Q 0.499 -0.664 0.514 -0.665 Q 0.495 -0.683 0.465 -0.683 Q 0.434 -0.683 0.418 -0.649 Q 0.41100000000000003 -0.635 0.394 -0.545 L 0.373 -0.431 L 0.456 -0.431 Q 0.481 -0.431 0.483 -0.42 Q 0.483 -0.402 0.467 -0.4 L 0.466 -0.4 L 0.453 -0.4 L 0.367 -0.4 Z"/></g><g transform="translate(5.650631578947368,8.697368421052632)"><path fill="rgb(97,97,97)" stroke="none" paint-order="stroke fill markers" d=" M 0.331 0.24 L 0.331 0.24 Q 0.331 0.25 0.321 0.25 Q 0.309 0.25 0.268 0.209 Q 0.20600000000000002 0.147 0.165 0.062 Q 0.099 -0.074 0.099 -0.25 Q 0.099 -0.419 0.162 -0.555 Q 0.214 -0.666 0.294 -0.733 Q 0.315 -0.75 0.321 -0.75 Q 0.331 -0.75 0.331 -0.74 Q 0.331 -0.735 0.318 -0.723 Q 0.157 -0.559 0.157 -0.25 Q 0.157 0.058 0.314 0.218 Q 0.331 0.23500000000000001 0.331 0.24 Z"/></g><g transform="translate(6.039631578947368,8.697368421052632)"><path fill="rgb(97,97,97)" stroke="none" paint-order="stroke fill markers" d=" M 0.373 -0.378 Q 0.378 -0.41200000000000003 0.404 -0.42 Q 0.40900000000000003 -0.422 0.41500000000000004 -0.422 Q 0.441 -0.422 0.444 -0.395 Q 0.444 -0.389 0.437 -0.361 L 0.401 -0.221 Q 0.386 -0.158 0.379 -0.131 Q 0.366 -0.079 0.366 -0.057 Q 0.366 -0.011 0.396 -0.011 Q 0.434 -0.011 0.46 -0.091 Q 0.465 -0.108 0.47200000000000003 -0.135 Q 0.48 -0.152 0.486 -0.153 Q 0.498 -0.153 0.498 -0.14300000000000002 Q 0.498 -0.128 0.48 -0.073 Q 0.47400000000000003 -0.056 0.468 -0.044 Q 0.44 0.011 0.394 0.011 Q 0.338 0.011 0.313 -0.037 Q 0.306 -0.049 0.303 -0.064 Q 0.24 0.011 0.17300000000000001 0.011 Q 0.098 0.011 0.062 -0.057 Q 0.04 -0.097 0.04 -0.149 Q 0.04 -0.257 0.115 -0.34900000000000003 Q 0.185 -0.433 0.267 -0.441 Q 0.274 -0.442 0.281 -0.442 Q 0.342 -0.442 0.373 -0.378 M 0.308 -0.11900000000000001 L 0.308 -0.11900000000000001 L 0.358 -0.315 Q 0.361 -0.33 0.361 -0.332 Q 0.361 -0.353 0.343 -0.383 Q 0.321 -0.42 0.28200000000000003 -0.42 Q 0.23 -0.42 0.183 -0.352 Q 0.17400000000000002 -0.339 0.166 -0.324 Q 0.137 -0.266 0.117 -0.159 Q 0.111 -0.125 0.111 -0.105 Q 0.111 -0.037 0.149 -0.017 Q 0.16 -0.011 0.17500000000000002 -0.011 Q 0.231 -0.011 0.28800000000000003 -0.082 Q 0.302 -0.098 0.307 -0.115 L 0.307 -0.116 Q 0.308 -0.11800000000000001 0.308 -0.11900000000000001 Z"/></g><g transform="translate(6.568631578947368,8.697368421052632)"><path fill="rgb(97,97,97)" stroke="none" paint-order="stroke fill markers" d=" M 0.289 -0.25 L 0.289 -0.25 Q 0.289 -0.081 0.226 0.055 Q 0.17400000000000002 0.166 0.094 0.233 Q 0.073 0.25 0.067 0.25 Q 0.057 0.25 0.057 0.24 Q 0.057 0.23500000000000001 0.07 0.223 Q 0.231 0.059000000000000004 0.231 -0.25 Q 0.231 -0.555 0.081 -0.712 L 0.076 -0.717 Q 0.057 -0.735 0.057 -0.74 Q 0.057 -0.75 0.067 -0.75 Q 0.079 -0.75 0.12 -0.709 Q 0.182 -0.647 0.223 -0.562 Q 0.289 -0.426 0.289 -0.25 Z"/></g><g transform="translate(7.235409356725146,8.697368421052632)"><path fill="rgb(97,97,97)" stroke="none" paint-order="stroke fill markers" d=" M 0.687 -0.327 L 0.09 -0.327 Q 0.058 -0.327 0.056 -0.34700000000000003 Q 0.056 -0.367 0.089 -0.367 L 0.6880000000000001 -0.367 Q 0.72 -0.367 0.721 -0.34700000000000003 Q 0.721 -0.327 0.687 -0.327 M 0.6880000000000001 -0.133 L 0.089 -0.133 Q 0.057 -0.133 0.056 -0.153 Q 0.056 -0.17300000000000001 0.09 -0.17300000000000001 L 0.687 -0.17300000000000001 Q 0.719 -0.17300000000000001 0.721 -0.153 Q 0.721 -0.133 0.6880000000000001 -0.133 Z"/></g><g transform="translate(8.291187134502925,8.697368421052632)"><path fill="rgb(97,97,97)" stroke="none" paint-order="stroke fill markers" d=" M 0.449 -0.17400000000000002 L 0.449 -0.17400000000000002 L 0.421 0 L 0.05 0 Q 0.05 -0.025 0.056 -0.032 L 0.061 -0.037 L 0.253 -0.251 Q 0.358 -0.369 0.358 -0.47200000000000003 Q 0.358 -0.561 0.304 -0.607 L 0.303 -0.608 L 0.302 -0.608 Q 0.27 -0.635 0.224 -0.635 Q 0.152 -0.635 0.109 -0.5730000000000001 Q 0.097 -0.555 0.089 -0.533 Q 0.092 -0.534 0.10200000000000001 -0.534 Q 0.14200000000000002 -0.534 0.153 -0.498 L 0.153 -0.497 Q 0.155 -0.49 0.155 -0.482 Q 0.155 -0.442 0.117 -0.431 Q 0.109 -0.429 0.10300000000000001 -0.429 Q 0.066 -0.429 0.054 -0.46 Q 0.05 -0.47100000000000003 0.05 -0.485 Q 0.05 -0.562 0.109 -0.617 Q 0.162 -0.666 0.23700000000000002 -0.666 Q 0.34700000000000003 -0.666 0.40800000000000003 -0.592 Q 0.443 -0.549 0.448 -0.49 Q 0.449 -0.481 0.449 -0.47200000000000003 Q 0.449 -0.399 0.394 -0.333 Q 0.365 -0.299 0.304 -0.243 L 0.243 -0.189 L 0.233 -0.18 L 0.127 -0.077 L 0.307 -0.077 Q 0.395 -0.077 0.402 -0.085 Q 0.41200000000000003 -0.099 0.424 -0.17400000000000002 L 0.449 -0.17400000000000002 Z"/></g></g><path fill="rgb(97,97,97)" stroke="none" paint-order="stroke fill markers" d=" M 553.1981854190253 182.75166480090104 C 553.1981854190253 185.51308855005502 550.9596091681793 187.75166480090104 548.1981854190253 187.75166480090104 C 545.4367616698713 187.75166480090104 543.1981854190253 185.51308855005502 543.1981854190253 182.75166480090104 C 543.1981854190253 179.99024105174706 545.4367616698713 177.75166480090104 548.1981854190253 177.75166480090104 C 550.9596091681793 177.75166480090104 553.1981854190253 179.99024105174706 553.1981854190253 182.75166480090104 Z" fill-opacity="1"/><path fill="none" stroke="rgb(0,0,0)" paint-order="fill stroke markers" d=" M 553.1981854190253 182.75166480090104 C 553.1981854190253 185.51308855005502 550.9596091681793 187.75166480090104 548.1981854190253 187.75166480090104 C 545.4367616698713 187.75166480090104 543.1981854190253 185.51308855005502 543.1981854190253 182.75166480090104 C 543.1981854190253 179.99024105174706 545.4367616698713 177.75166480090104 548.1981854190253 177.75166480090104 C 550.9596091681793 177.75166480090104 553.1981854190253 179.99024105174706 553.1981854190253 182.75166480090104 Z" stroke-opacity="1" stroke-linecap="round" stroke-linejoin="round" stroke-miterlimit="10"/><g transform="scale(19,19)"><g transform="translate(29.263157894736842,8.697368421052632)"><path fill="rgb(97,97,97)" stroke="none" paint-order="stroke fill markers" d=" M 0.367 -0.4 L 0.367 -0.4 L 0.307 -0.083 Q 0.298 -0.021 0.271 0.059000000000000004 Q 0.261 0.088 0.251 0.108 Q 0.216 0.182 0.164 0.2 Q 0.151 0.20500000000000002 0.138 0.20500000000000002 Q 0.088 0.20500000000000002 0.064 0.171 Q 0.053 0.156 0.053 0.136 Q 0.053 0.096 0.08700000000000001 0.081 Q 0.097 0.076 0.108 0.076 Q 0.137 0.076 0.14400000000000002 0.101 Q 0.145 0.106 0.145 0.111 Q 0.145 0.145 0.115 0.159 Q 0.10400000000000001 0.164 0.09 0.165 Q 0.109 0.183 0.138 0.183 Q 0.182 0.183 0.20700000000000002 0.085 Q 0.212 0.062 0.219 0.025 L 0.225 -0.005 L 0.3 -0.4 L 0.234 -0.4 Q 0.209 -0.4 0.20700000000000002 -0.40800000000000003 L 0.20600000000000002 -0.40800000000000003 L 0.20600000000000002 -0.41200000000000003 Q 0.20600000000000002 -0.429 0.223 -0.431 L 0.223 -0.431 L 0.23600000000000002 -0.431 L 0.305 -0.431 Q 0.329 -0.556 0.338 -0.588 Q 0.368 -0.6880000000000001 0.444 -0.7030000000000001 Q 0.455 -0.705 0.465 -0.705 Q 0.517 -0.705 0.541 -0.671 L 0.541 -0.671 Q 0.552 -0.656 0.552 -0.636 Q 0.552 -0.596 0.518 -0.581 Q 0.508 -0.5760000000000001 0.497 -0.5760000000000001 Q 0.468 -0.5760000000000001 0.461 -0.601 Q 0.46 -0.606 0.46 -0.611 Q 0.46 -0.642 0.488 -0.657 Q 0.499 -0.664 0.514 -0.665 Q 0.495 -0.683 0.465 -0.683 Q 0.434 -0.683 0.418 -0.649 Q 0.41100000000000003 -0.635 0.394 -0.545 L 0.373 -0.431 L 0.456 -0.431 Q 0.481 -0.431 0.483 -0.42 Q 0.483 -0.402 0.467 -0.4 L 0.466 -0.4 L 0.453 -0.4 L 0.367 -0.4 Z"/></g><g transform="translate(29.86115789473684,8.697368421052632)"><path fill="rgb(97,97,97)" stroke="none" paint-order="stroke fill markers" d=" M 0.331 0.24 L 0.331 0.24 Q 0.331 0.25 0.321 0.25 Q 0.309 0.25 0.268 0.209 Q 0.20600000000000002 0.147 0.165 0.062 Q 0.099 -0.074 0.099 -0.25 Q 0.099 -0.419 0.162 -0.555 Q 0.214 -0.666 0.294 -0.733 Q 0.315 -0.75 0.321 -0.75 Q 0.331 -0.75 0.331 -0.74 Q 0.331 -0.735 0.318 -0.723 Q 0.157 -0.559 0.157 -0.25 Q 0.157 0.058 0.314 0.218 Q 0.331 0.23500000000000001 0.331 0.24 Z"/></g><g transform="translate(30.25015789473684,8.697368421052632)"><path fill="rgb(97,97,97)" stroke="none" paint-order="stroke fill markers" d=" M 0.23900000000000002 -0.683 L 0.165 -0.382 Q 0.223 -0.442 0.28200000000000003 -0.442 Q 0.357 -0.442 0.394 -0.373 Q 0.41500000000000004 -0.333 0.41500000000000004 -0.28200000000000003 Q 0.41500000000000004 -0.176 0.341 -0.084 Q 0.272 0.001 0.189 0.01 Q 0.181 0.011 0.17400000000000002 0.011 Q 0.10200000000000001 0.011 0.067 -0.056 Q 0.047 -0.094 0.047 -0.146 Q 0.047 -0.18 0.063 -0.247 L 0.145 -0.5730000000000001 Q 0.159 -0.632 0.159 -0.635 Q 0.159 -0.646 0.145 -0.649 L 0.145 -0.649 Q 0.133 -0.652 0.109 -0.652 Q 0.08700000000000001 -0.652 0.085 -0.664 Q 0.085 -0.681 0.10400000000000001 -0.684 L 0.226 -0.6940000000000001 Q 0.23900000000000002 -0.6940000000000001 0.23900000000000002 -0.683 M 0.145 -0.305 L 0.123 -0.213 Q 0.107 -0.15 0.107 -0.112 Q 0.107 -0.026000000000000002 0.159 -0.013000000000000001 Q 0.166 -0.011 0.17400000000000002 -0.011 Q 0.227 -0.011 0.273 -0.081 Q 0.28300000000000003 -0.096 0.292 -0.114 Q 0.319 -0.171 0.337 -0.268 Q 0.343 -0.303 0.343 -0.326 Q 0.343 -0.406 0.294 -0.418 L 0.293 -0.419 Q 0.28700000000000003 -0.42 0.28 -0.42 Q 0.22 -0.42 0.16 -0.34 Q 0.152 -0.33 0.145 -0.305 Z"/></g><g transform="translate(30.67915789473684,8.697368421052632)"><path fill="rgb(97,97,97)" stroke="none" paint-order="stroke fill markers" d=" M 0.289 -0.25 L 0.289 -0.25 Q 0.289 -0.081 0.226 0.055 Q 0.17400000000000002 0.166 0.094 0.233 Q 0.073 0.25 0.067 0.25 Q 0.057 0.25 0.057 0.24 Q 0.057 0.23500000000000001 0.07 0.223 Q 0.231 0.059000000000000004 0.231 -0.25 Q 0.231 -0.555 0.081 -0.712 L 0.076 -0.717 Q 0.057 -0.735 0.057 -0.74 Q 0.057 -0.75 0.067 -0.75 Q 0.079 -0.75 0.12 -0.709 Q 0.182 -0.647 0.223 -0.562 Q 0.289 -0.426 0.289 -0.25 Z"/></g><g transform="translate(31.345935672514617,8.697368421052632)"><path fill="rgb(97,97,97)" stroke="none" paint-order="stroke fill markers" d=" M 0.687 -0.327 L 0.09 -0.327 Q 0.058 -0.327 0.056 -0.34700000000000003 Q 0.056 -0.367 0.089 -0.367 L 0.6880000000000001 -0.367 Q 0.72 -0.367 0.721 -0.34700000000000003 Q 0.721 -0.327 0.687 -0.327 M 0.6880000000000001 -0.133 L 0.089 -0.133 Q 0.057 -0.133 0.056 -0.153 Q 0.056 -0.17300000000000001 0.09 -0.17300000000000001 L 0.687 -0.17300000000000001 Q 0.719 -0.17300000000000001 0.721 -0.153 Q 0.721 -0.133 0.6880000000000001 -0.133 Z"/></g><g transform="translate(32.4017134502924,8.697368421052632)"><path fill="rgb(97,97,97)" stroke="none" paint-order="stroke fill markers" d=" M 0.449 -0.17400000000000002 L 0.449 -0.17400000000000002 L 0.421 0 L 0.05 0 Q 0.05 -0.025 0.056 -0.032 L 0.061 -0.037 L 0.253 -0.251 Q 0.358 -0.369 0.358 -0.47200000000000003 Q 0.358 -0.561 0.304 -0.607 L 0.303 -0.608 L 0.302 -0.608 Q 0.27 -0.635 0.224 -0.635 Q 0.152 -0.635 0.109 -0.5730000000000001 Q 0.097 -0.555 0.089 -0.533 Q 0.092 -0.534 0.10200000000000001 -0.534 Q 0.14200000000000002 -0.534 0.153 -0.498 L 0.153 -0.497 Q 0.155 -0.49 0.155 -0.482 Q 0.155 -0.442 0.117 -0.431 Q 0.109 -0.429 0.10300000000000001 -0.429 Q 0.066 -0.429 0.054 -0.46 Q 0.05 -0.47100000000000003 0.05 -0.485 Q 0.05 -0.562 0.109 -0.617 Q 0.162 -0.666 0.23700000000000002 -0.666 Q 0.34700000000000003 -0.666 0.40800000000000003 -0.592 Q 0.443 -0.549 0.448 -0.49 Q 0.449 -0.481 0.449 -0.47200000000000003 Q 0.449 -0.399 0.394 -0.333 Q 0.365 -0.299 0.304 -0.243 L 0.243 -0.189 L 0.233 -0.18 L 0.127 -0.077 L 0.307 -0.077 Q 0.395 -0.077 0.402 -0.085 Q 0.41200000000000003 -0.099 0.424 -0.17400000000000002 L 0.449 -0.17400000000000002 Z"/></g></g><path fill="rgb(21,101,192)" stroke="none" paint-order="stroke fill markers" d=" M 439.3553148009017 109.54666480090077 C 439.3553148009017 112.30808855005473 437.11673855005563 114.54666480090077 434.3553148009017 114.54666480090077 C 431.59389105174773 114.54666480090077 429.3553148009017 112.30808855005473 429.3553148009017 109.54666480090077 C 429.3553148009017 106.78524105174681 431.59389105174773 104.54666480090077 434.3553148009017 104.54666480090077 C 437.11673855005563 104.54666480090077 439.3553148009017 106.78524105174681 439.3553148009017 109.54666480090077 Z" fill-opacity="1"/><path fill="none" stroke="rgb(0,0,0)" paint-order="fill stroke markers" d=" M 439.3553148009017 109.54666480090077 C 439.3553148009017 112.30808855005473 437.11673855005563 114.54666480090077 434.3553148009017 114.54666480090077 C 431.59389105174773 114.54666480090077 429.3553148009017 112.30808855005473 429.3553148009017 109.54666480090077 C 429.3553148009017 106.78524105174681 431.59389105174773 104.54666480090077 434.3553148009017 104.54666480090077 C 437.11673855005563 104.54666480090077 439.3553148009017 106.78524105174681 439.3553148009017 109.54666480090077 Z" stroke-opacity="1" stroke-linecap="round" stroke-linejoin="round" stroke-miterlimit="10"/><text fill="rgb(21,101,192)" stroke="none" font-family="geogebra-sans-serif, sans-serif" font-size="16px" font-style="normal" font-weight="normal" text-decoration="normal" x="438" y="100" text-anchor="start" dominant-baseline="alphabetic" fill-opacity="1">D</text><text fill="none" stroke="rgb(255,255,255)" font-family="geogebra-sans-serif, sans-serif" font-size="16px" font-style="normal" font-weight="normal" text-decoration="normal" x="438" y="100" text-anchor="start" dominant-baseline="alphabetic" stroke-opacity="1" stroke-linejoin="bevel" stroke-miterlimit="10" stroke-width="3">D</text><text fill="rgb(21,101,192)" stroke="none" font-family="geogebra-sans-serif, sans-serif" font-size="16px" font-style="normal" font-weight="normal" text-decoration="normal" x="438" y="100" text-anchor="start" dominant-baseline="alphabetic" fill-opacity="1">D</text><path fill="rgb(21,101,192)" stroke="none" paint-order="stroke fill markers" d=" M 207.03531480090157 255.95666480090136 C 207.03531480090157 258.7180885500553 204.79673855005555 260.95666480090136 202.03531480090157 260.95666480090136 C 199.2738910517476 260.95666480090136 197.03531480090157 258.7180885500553 197.03531480090157 255.95666480090136 C 197.03531480090157 253.1952410517474 199.2738910517476 250.95666480090136 202.03531480090157 250.95666480090136 C 204.79673855005555 250.95666480090136 207.03531480090157 253.1952410517474 207.03531480090157 255.95666480090136 Z" fill-opacity="1"/><path fill="none" stroke="rgb(0,0,0)" paint-order="fill stroke markers" d=" M 207.03531480090157 255.95666480090136 C 207.03531480090157 258.7180885500553 204.79673855005555 260.95666480090136 202.03531480090157 260.95666480090136 C 199.2738910517476 260.95666480090136 197.03531480090157 258.7180885500553 197.03531480090157 255.95666480090136 C 197.03531480090157 253.1952410517474 199.2738910517476 250.95666480090136 202.03531480090157 250.95666480090136 C 204.79673855005555 250.95666480090136 207.03531480090157 253.1952410517474 207.03531480090157 255.95666480090136 Z" stroke-opacity="1" stroke-linecap="round" stroke-linejoin="round" stroke-miterlimit="10"/><g transform="scale(19,19)"><g transform="translate(11.052631578947368,12.591565684210526)"><path fill="rgb(21,101,192)" stroke="none" paint-order="stroke fill markers" d=" M 0.367 -0.4 L 0.367 -0.4 L 0.307 -0.083 Q 0.298 -0.021 0.271 0.059000000000000004 Q 0.261 0.088 0.251 0.108 Q 0.216 0.182 0.164 0.2 Q 0.151 0.20500000000000002 0.138 0.20500000000000002 Q 0.088 0.20500000000000002 0.064 0.171 Q 0.053 0.156 0.053 0.136 Q 0.053 0.096 0.08700000000000001 0.081 Q 0.097 0.076 0.108 0.076 Q 0.137 0.076 0.14400000000000002 0.101 Q 0.145 0.106 0.145 0.111 Q 0.145 0.145 0.115 0.159 Q 0.10400000000000001 0.164 0.09 0.165 Q 0.109 0.183 0.138 0.183 Q 0.182 0.183 0.20700000000000002 0.085 Q 0.212 0.062 0.219 0.025 L 0.225 -0.005 L 0.3 -0.4 L 0.234 -0.4 Q 0.209 -0.4 0.20700000000000002 -0.40800000000000003 L 0.20600000000000002 -0.40800000000000003 L 0.20600000000000002 -0.41200000000000003 Q 0.20600000000000002 -0.429 0.223 -0.431 L 0.223 -0.431 L 0.23600000000000002 -0.431 L 0.305 -0.431 Q 0.329 -0.556 0.338 -0.588 Q 0.368 -0.6880000000000001 0.444 -0.7030000000000001 Q 0.455 -0.705 0.465 -0.705 Q 0.517 -0.705 0.541 -0.671 L 0.541 -0.671 Q 0.552 -0.656 0.552 -0.636 Q 0.552 -0.596 0.518 -0.581 Q 0.508 -0.5760000000000001 0.497 -0.5760000000000001 Q 0.468 -0.5760000000000001 0.461 -0.601 Q 0.46 -0.606 0.46 -0.611 Q 0.46 -0.642 0.488 -0.657 Q 0.499 -0.664 0.514 -0.665 Q 0.495 -0.683 0.465 -0.683 Q 0.434 -0.683 0.418 -0.649 Q 0.41100000000000003 -0.635 0.394 -0.545 L 0.373 -0.431 L 0.456 -0.431 Q 0.481 -0.431 0.483 -0.42 Q 0.483 -0.402 0.467 -0.4 L 0.466 -0.4 L 0.453 -0.4 L 0.367 -0.4 Z"/></g><g transform="translate(11.650631578947369,12.178673684210526) scale(0.7,0.7)"><path fill="rgb(21,101,192)" stroke="none" paint-order="stroke fill markers" d=" M 0.255 -0.47900000000000004 L 0.076 -0.059000000000000004 Q 0.07 -0.045 0.063 -0.045 Q 0.045 -0.045 0.033 -0.056 Q 0.029 -0.059000000000000004 0.029 -0.063 Q 0.029 -0.065 0.032 -0.077 L 0.153 -0.513 Q 0.166 -0.554 0.197 -0.558 Q 0.202 -0.559 0.20600000000000002 -0.559 Q 0.24 -0.559 0.256 -0.53 Q 0.262 -0.519 0.262 -0.507 Q 0.262 -0.494 0.255 -0.47900000000000004 Z"/></g><g transform="translate(11.869349052892105,12.591565684210526)"><path fill="rgb(21,101,192)" stroke="none" paint-order="stroke fill markers" d=" M 0.331 0.24 L 0.331 0.24 Q 0.331 0.25 0.321 0.25 Q 0.309 0.25 0.268 0.209 Q 0.20600000000000002 0.147 0.165 0.062 Q 0.099 -0.074 0.099 -0.25 Q 0.099 -0.419 0.162 -0.555 Q 0.214 -0.666 0.294 -0.733 Q 0.315 -0.75 0.321 -0.75 Q 0.331 -0.75 0.331 -0.74 Q 0.331 -0.735 0.318 -0.723 Q 0.157 -0.559 0.157 -0.25 Q 0.157 0.058 0.314 0.218 Q 0.331 0.23500000000000001 0.331 0.24 Z"/></g><g transform="translate(12.258349052892104,12.591565684210526)"><path fill="rgb(21,101,192)" stroke="none" paint-order="stroke fill markers" d=" M 0.154 -0.306 L 0.154 -0.306 L 0.167 -0.316 Q 0.10300000000000001 -0.353 0.10200000000000001 -0.422 Q 0.10200000000000001 -0.498 0.17500000000000002 -0.557 Q 0.218 -0.593 0.277 -0.609 Q 0.27 -0.637 0.27 -0.648 Q 0.27 -0.6970000000000001 0.28800000000000003 -0.6970000000000001 Q 0.3 -0.6970000000000001 0.3 -0.684 L 0.295 -0.648 L 0.295 -0.647 Q 0.295 -0.629 0.3 -0.614 Q 0.326 -0.619 0.363 -0.619 Q 0.437 -0.619 0.445 -0.599 L 0.445 -0.598 L 0.445 -0.597 Q 0.446 -0.595 0.446 -0.592 Q 0.446 -0.561 0.357 -0.561 Q 0.314 -0.561 0.296 -0.579 Q 0.295 -0.581 0.293 -0.583 Q 0.219 -0.546 0.191 -0.466 Q 0.182 -0.439 0.182 -0.41300000000000003 Q 0.182 -0.365 0.212 -0.335 Q 0.249 -0.34700000000000003 0.296 -0.34700000000000003 Q 0.376 -0.34700000000000003 0.378 -0.32 Q 0.378 -0.289 0.28500000000000003 -0.289 Q 0.234 -0.289 0.197 -0.302 Q 0.121 -0.264 0.08700000000000001 -0.184 Q 0.074 -0.154 0.074 -0.132 Q 0.074 -0.073 0.149 -0.043000000000000003 L 0.209 -0.019 Q 0.23 -0.012 0.27 0.004 Q 0.314 0.021 0.331 0.027 Q 0.379 0.049 0.379 0.098 Q 0.379 0.147 0.339 0.181 Q 0.32 0.197 0.297 0.202 Q 0.28600000000000003 0.20500000000000002 0.275 0.20500000000000002 Q 0.221 0.20500000000000002 0.179 0.17300000000000001 Q 0.166 0.163 0.166 0.157 Q 0.166 0.146 0.176 0.146 Q 0.18 0.146 0.187 0.151 Q 0.231 0.183 0.275 0.183 Q 0.307 0.183 0.32 0.149 Q 0.324 0.139 0.324 0.13 Q 0.324 0.10400000000000001 0.297 0.091 Q 0.301 0.093 0.289 0.08700000000000001 L 0.168 0.04 Q 0.095 0.013000000000000001 0.075 -0.003 Q 0.066 -0.01 0.052000000000000005 -0.025 Q 0.036000000000000004 -0.049 0.035 -0.05 Q 0.023 -0.075 0.023 -0.10400000000000001 Q 0.023 -0.166 0.073 -0.231 Q 0.105 -0.274 0.154 -0.306 M 0.316 -0.592 Q 0.327 -0.583 0.358 -0.583 Q 0.399 -0.583 0.42 -0.591 Q 0.398 -0.597 0.364 -0.597 Q 0.332 -0.597 0.316 -0.592 M 0.23800000000000002 -0.319 Q 0.256 -0.311 0.28800000000000003 -0.311 Q 0.336 -0.311 0.352 -0.319 Q 0.33 -0.325 0.295 -0.325 Q 0.261 -0.325 0.23800000000000002 -0.319 Z"/></g><g transform="translate(12.742349052892104,12.591565684210526)"><path fill="rgb(21,101,192)" stroke="none" paint-order="stroke fill markers" d=" M 0.289 -0.25 L 0.289 -0.25 Q 0.289 -0.081 0.226 0.055 Q 0.17400000000000002 0.166 0.094 0.233 Q 0.073 0.25 0.067 0.25 Q 0.057 0.25 0.057 0.24 Q 0.057 0.23500000000000001 0.07 0.223 Q 0.231 0.059000000000000004 0.231 -0.25 Q 0.231 -0.555 0.081 -0.712 L 0.076 -0.717 Q 0.057 -0.735 0.057 -0.74 Q 0.057 -0.75 0.067 -0.75 Q 0.079 -0.75 0.12 -0.709 Q 0.182 -0.647 0.223 -0.562 Q 0.289 -0.426 0.289 -0.25 Z"/></g><g transform="translate(13.409126830669882,12.591565684210526)"><path fill="rgb(21,101,192)" stroke="none" paint-order="stroke fill markers" d=" M 0.687 -0.327 L 0.09 -0.327 Q 0.058 -0.327 0.056 -0.34700000000000003 Q 0.056 -0.367 0.089 -0.367 L 0.6880000000000001 -0.367 Q 0.72 -0.367 0.721 -0.34700000000000003 Q 0.721 -0.327 0.687 -0.327 M 0.6880000000000001 -0.133 L 0.089 -0.133 Q 0.057 -0.133 0.056 -0.153 Q 0.056 -0.17300000000000001 0.09 -0.17300000000000001 L 0.687 -0.17300000000000001 Q 0.719 -0.17300000000000001 0.721 -0.153 Q 0.721 -0.133 0.6880000000000001 -0.133 Z"/></g><g transform="translate(14.464904608447661,12.591565684210526)"><path fill="rgb(21,101,192)" stroke="none" paint-order="stroke fill markers" d=" M 0.46 -0.32 Q 0.46 -0.17400000000000002 0.423 -0.094 Q 0.364 0.018000000000000002 0.249 0.022 Q 0.158 0.022 0.10300000000000001 -0.05 Q 0.092 -0.063 0.084 -0.079 Q 0.039 -0.162 0.039 -0.32 Q 0.039 -0.467 0.076 -0.547 Q 0.126 -0.659 0.23800000000000002 -0.666 L 0.25 -0.666 Q 0.339 -0.666 0.395 -0.595 L 0.395 -0.594 Q 0.40900000000000003 -0.5760000000000001 0.42 -0.554 Q 0.46 -0.46900000000000003 0.46 -0.32 M 0.249 0 L 0.249 0 Q 0.312 0 0.34600000000000003 -0.061 Q 0.36 -0.088 0.366 -0.125 Q 0.377 -0.189 0.377 -0.332 Q 0.377 -0.47100000000000003 0.367 -0.527 Q 0.34900000000000003 -0.622 0.275 -0.641 Q 0.262 -0.644 0.249 -0.644 Q 0.179 -0.644 0.147 -0.5740000000000001 Q 0.136 -0.55 0.13 -0.516 Q 0.122 -0.462 0.122 -0.332 Q 0.122 -0.181 0.133 -0.121 Q 0.151 -0.025 0.221 -0.004 Q 0.23500000000000001 0 0.249 0 Z"/></g></g></g></g></svg>